<?xml version="1.0" standalone="no"?>
<!DOCTYPE svg PUBLIC "-//W3C//DTD SVG 20010904//EN"
 "http://www.w3.org/TR/2001/REC-SVG-20010904/DTD/svg10.dtd">
<svg version="1.0" xmlns="http://www.w3.org/2000/svg"
 width="500.000000pt" height="500.000000pt" viewBox="0 0 500.000000 500.000000"
 preserveAspectRatio="xMidYMid meet">

<g transform="translate(0.000000,500.000000) scale(0.100000,-0.100000)"
fill="#000000" stroke="none">
<path d="M2286 3615 c-449 -85 -809 -432 -907 -874 -26 -118 -26 -341 0 -466
109 -529 569 -905 1106 -905 299 0 587 120 800 334 139 139 263 354 304 525
26 110 44 129 114 123 110 -9 226 65 290 186 37 68 28 68 -11 -1 -17 -29 -47
-68 -68 -87 -67 -59 -193 -104 -240 -86 -14 5 -6 18 43 69 33 34 72 81 86 104
29 45 79 77 140 88 46 9 90 -1 81 -18 -5 -9 -4 -9 6 0 26 24 -1 36 -69 31 -89
-7 -138 -33 -184 -100 -20 -29 -58 -78 -84 -108 -27 -31 -55 -66 -64 -80 -15
-23 -16 -12 -11 155 4 154 7 186 25 220 44 89 75 122 174 184 54 35 87 60 73
56 -36 -11 -79 -34 -120 -64 l-35 -26 32 40 c17 22 42 50 55 62 27 25 119 68
164 76 l31 6 -31 -33 c-17 -18 -40 -38 -51 -45 -18 -11 -18 -11 5 -5 29 8 122
87 108 92 -20 8 -143 -20 -187 -43 -25 -13 -60 -38 -77 -57 -40 -41 -117 -161
-146 -225 l-22 -48 -6 35 c-7 33 -7 34 -9 6 -1 -36 -6 -32 -14 12 -4 21 -3 31
3 27 6 -3 10 1 10 9 0 9 -5 15 -11 13 -6 -1 -26 40 -44 91 -19 51 -58 137 -88
190 -30 53 -60 106 -66 117 -6 11 -11 16 -11 12 0 -4 -43 36 -95 90 -52 53
-93 99 -91 101 7 6 64 -27 103 -60 l38 -32 -35 37 c-38 42 -122 87 -127 70 -2
-6 -27 5 -56 24 -85 59 -249 132 -354 159 -125 33 -354 42 -477 19z m367 -10
c161 -24 309 -81 446 -172 61 -41 72 -52 76 -83 32 -217 80 -316 184 -382 62
-39 74 -35 15 5 -87 58 -152 181 -170 322 l-6 50 41 -62 c46 -72 65 -85 26
-20 -37 64 -31 67 25 12 78 -76 119 -143 146 -236 23 -80 23 -85 7 -98 -17
-13 -17 -13 -1 -8 14 5 22 -2 32 -28 8 -18 32 -53 53 -77 28 -31 43 -59 52
-98 31 -137 22 -388 -19 -540 -46 -169 -169 -371 -301 -496 -454 -429 -1154
-413 -1582 35 -158 166 -264 384 -297 609 -19 129 -8 335 24 452 85 306 298
566 581 708 124 63 220 91 395 116 61 8 183 5 273 -9z m831 -602 c32 -64 70
-172 63 -179 -9 -9 -58 82 -71 133 -7 27 -16 58 -20 71 -12 38 2 24 28 -25z"/>
<path d="M3305 3171 c7 -21 21 -54 31 -72 16 -33 103 -149 111 -149 6 0 -17
41 -59 103 -21 31 -50 80 -64 107 -30 60 -38 64 -19 11z"/>
<path d="M3260 3174 c0 -8 5 -12 10 -9 6 4 8 11 5 16 -9 14 -15 11 -15 -7z"/>
<path d="M3280 3120 c0 -5 5 -10 10 -10 6 0 10 5 10 10 0 6 -4 10 -10 10 -5 0
-10 -4 -10 -10z"/>
<path d="M2259 3076 c-158 -44 -275 -161 -315 -316 -21 -83 -15 -213 14 -288
45 -116 144 -209 267 -250 l60 -21 7 -67 c26 -255 300 -432 550 -354 68 21
137 64 176 108 47 54 42 62 -11 19 -81 -66 -127 -80 -239 -75 -73 3 -105 10
-151 30 -113 53 -214 180 -233 295 l-6 40 52 6 c59 7 147 45 193 83 35 28 89
95 83 102 -2 2 -29 -17 -60 -42 -63 -51 -133 -76 -213 -76 -65 0 -69 7 -53 87
23 110 75 179 168 225 123 61 273 37 345 -53 17 -23 31 -54 34 -80 3 -24 12
-52 21 -61 30 -35 85 -15 98 36 8 33 -18 87 -61 129 -180 175 -529 97 -650
-145 -19 -39 -35 -79 -35 -89 0 -44 -93 3 -168 85 -144 157 -150 431 -12 565
73 71 205 100 315 70 56 -16 121 -83 130 -134 10 -64 27 -90 62 -93 40 -4 63
20 63 66 0 76 -89 166 -194 197 -59 18 -173 18 -237 1z"/>
<path d="M3230 2888 c1 -62 25 -190 43 -225 31 -60 137 -130 222 -148 17 -3 5
4 -26 18 -80 34 -148 86 -171 130 -15 31 -49 166 -48 195 0 4 9 -11 19 -33 10
-22 35 -60 55 -84 21 -24 43 -56 51 -70 13 -25 88 -101 130 -132 18 -13 18
-12 -2 16 -12 17 -39 47 -61 67 -70 66 -133 152 -163 222 -16 37 -29 70 -29
73 0 3 17 -5 38 -16 l37 -22 -28 26 c-15 14 -37 25 -48 25 -16 0 -19 -7 -19
-42z"/>
<path d="M3344 2868 c56 -38 67 -53 85 -111 10 -34 51 -125 91 -202 40 -77 69
-129 65 -115 -14 49 -55 139 -86 192 -17 29 -43 82 -56 118 -28 73 -45 96 -88
116 -18 9 -23 9 -11 2z"/>
<path d="M3325 2780 c3 -5 10 -10 16 -10 5 0 9 5 9 10 0 6 -7 10 -16 10 -8 0
-12 -4 -9 -10z"/>
<path d="M3380 2760 c-13 -8 -12 -10 3 -10 9 0 17 5 17 10 0 12 -1 12 -20 0z"/>
<path d="M3631 3494 c-51 -65 -91 -230 -90 -372 0 -93 15 -215 18 -149 1 19 5
26 13 21 7 -4 8 -3 4 5 -4 6 2 51 13 100 12 48 22 126 24 172 2 47 8 93 15
104 8 16 11 -5 11 -92 1 -94 -2 -113 -14 -113 -8 0 -15 -7 -15 -15 0 -8 4 -15
10 -15 5 0 1 -23 -11 -51 -11 -29 -18 -54 -15 -56 2 -2 18 31 34 74 27 69 31
92 30 174 0 94 12 160 38 212 14 26 14 27 -15 27 -20 0 -36 -8 -50 -26z m10
-47 c-20 -39 -31 -80 -40 -153 -7 -54 -19 -128 -26 -164 -8 -36 -16 -76 -18
-90 -3 -14 -5 3 -6 37 -3 131 44 339 90 397 31 39 31 32 0 -27z"/>
<path d="M3340 3280 c6 -11 13 -20 16 -20 2 0 0 9 -6 20 -6 11 -13 20 -16 20
-2 0 0 -9 6 -20z"/>
<path d="M4043 3001 c-36 -63 -157 -131 -258 -144 -23 -3 -21 -4 12 -6 89 -3
219 73 260 152 22 43 11 41 -14 -2z"/>
<path d="M3925 2940 c-3 -5 -1 -10 4 -10 6 0 11 5 11 10 0 6 -2 10 -4 10 -3 0
-8 -4 -11 -10z"/>
<path d="M3562 2920 c0 -14 2 -19 5 -12 2 6 2 18 0 25 -3 6 -5 1 -5 -13z"/>
<path d="M3860 2920 c0 -5 5 -10 10 -10 6 0 10 5 10 10 0 6 -4 10 -10 10 -5 0
-10 -4 -10 -10z"/>
<path d="M3571 2874 c0 -11 3 -14 6 -6 3 7 2 16 -1 19 -3 4 -6 -2 -5 -13z"/>
<path d="M3581 2834 c0 -11 3 -14 6 -6 3 7 2 16 -1 19 -3 4 -6 -2 -5 -13z"/>
<path d="M3940 2574 c-25 -25 -63 -55 -85 -66 -22 -11 -56 -35 -75 -53 -19
-18 -53 -44 -75 -59 -22 -14 -36 -26 -32 -26 21 0 106 53 137 85 19 20 48 43
63 51 38 20 140 114 124 114 -7 0 -33 -21 -57 -46z"/>
<path d="M3890 2580 c0 -5 5 -10 10 -10 6 0 10 5 10 10 0 6 -4 10 -10 10 -5 0
-10 -4 -10 -10z"/>
<path d="M3845 2540 c-3 -5 1 -10 9 -10 9 0 16 5 16 10 0 6 -4 10 -9 10 -6 0
-13 -4 -16 -10z"/>
<path d="M1549 1221 c-23 -24 -29 -38 -29 -74 0 -38 5 -49 31 -71 34 -29 79
-33 119 -11 24 13 23 13 -16 8 -51 -7 -82 9 -99 50 -25 61 7 122 62 115 17 -2
32 -11 38 -25 12 -28 35 -30 35 -3 0 25 -29 40 -75 40 -27 0 -44 -8 -66 -29z"/>
<path d="M1778 1243 c8 -3 12 -32 12 -93 0 -61 -4 -90 -12 -93 -7 -3 5 -5 27
-5 22 0 34 2 28 5 -8 2 -13 22 -13 44 l0 39 51 0 51 0 -4 -45 c-3 -44 -3 -45
27 -44 16 0 24 3 18 6 -9 3 -13 32 -13 93 0 61 4 90 13 93 6 3 -1 6 -18 6 -30
1 -30 1 -27 -49 l4 -50 -52 0 -52 0 4 50 c3 50 3 50 -27 49 -16 0 -24 -3 -17
-6z"/>
<path d="M2048 1238 c7 -7 12 -42 12 -88 0 -46 -5 -81 -12 -88 -9 -9 -4 -12
22 -12 26 0 31 3 22 12 -7 7 -12 42 -12 88 0 46 5 81 12 88 9 9 4 12 -22 12
-26 0 -31 -3 -22 -12z"/>
<path d="M2177 1243 c-4 -3 -7 -13 -7 -21 0 -13 3 -13 18 1 10 10 26 17 35 17
15 0 17 -13 17 -89 0 -62 -4 -91 -12 -94 -7 -3 5 -6 27 -6 24 0 35 2 27 8 -9
5 -12 31 -10 92 3 74 5 84 22 87 11 3 26 -4 33 -14 12 -17 13 -16 13 4 0 21
-4 22 -78 22 -43 0 -82 -3 -85 -7z"/>
<path d="M2549 1221 c-23 -24 -29 -38 -29 -74 0 -38 5 -49 31 -71 34 -29 79
-33 119 -11 24 13 23 13 -16 8 -51 -7 -82 9 -99 50 -25 61 7 122 62 115 17 -2
32 -11 38 -25 12 -28 35 -30 35 -3 0 25 -29 40 -75 40 -27 0 -44 -8 -66 -29z"/>
<path d="M2778 1243 c8 -3 12 -32 12 -93 0 -61 -4 -90 -12 -93 -7 -3 5 -5 27
-5 22 0 34 2 28 5 -8 2 -13 22 -13 44 l0 39 51 0 51 0 -4 -45 c-3 -44 -3 -45
27 -44 16 0 24 3 18 6 -9 3 -13 32 -13 93 0 61 4 90 13 93 6 3 -1 6 -18 6 -30
1 -30 1 -27 -49 l4 -50 -52 0 -52 0 4 50 c3 50 3 50 -27 49 -16 0 -24 -3 -17
-6z"/>
<path d="M3101 1167 c-19 -45 -41 -90 -49 -99 -14 -17 -13 -18 14 -18 20 0 25
3 15 9 -10 7 -11 13 -1 30 9 19 18 22 58 19 44 -3 47 -5 47 -30 -1 -25 3 -28
34 -28 29 0 32 2 20 13 -9 6 -33 51 -54 100 -21 48 -41 87 -44 87 -3 0 -21
-37 -40 -83z m66 -44 c-3 -2 -21 -3 -40 -1 l-34 3 20 45 19 45 20 -43 c11 -24
17 -46 15 -49z"/>
<path d="M3317 1229 c-5 -20 -5 -20 13 -4 10 9 27 15 37 13 15 -3 18 -15 21
-83 2 -66 0 -82 -14 -92 -15 -11 -12 -13 27 -13 35 1 40 3 27 11 -15 8 -18 24
-18 90 0 86 12 105 51 80 15 -9 19 -8 19 4 0 12 -15 15 -79 15 -71 0 -79 -2
-84 -21z"/>
</g>
</svg>
